<svg width="38" height="37" viewBox="0 0 38 37" fill="none" xmlns="http://www.w3.org/2000/svg">
<g clip-path="url(#clip0_859_5921)">
<path d="M7.50598 0C3.76346 0 0.75 3.01346 0.75 6.75598V30.2441C0.75 33.9866 3.76346 37 7.50598 37H20.2363V22.5353H16.4114V17.3276H20.2363V12.8783C20.2363 9.38275 22.4962 6.17323 27.7022 6.17323C29.81 6.17323 31.3687 6.37558 31.3687 6.37558L31.2461 11.2388C31.2461 11.2388 29.6565 11.2238 27.9219 11.2238C26.0445 11.2238 25.7435 12.0887 25.7435 13.5247V17.3276H31.3953L31.149 22.5354H25.7435V37.0001H30.994C34.7365 37.0001 37.75 33.9866 37.75 30.2441V6.75601C37.75 3.0135 34.7365 3.7e-05 30.994 3.7e-05H7.50594L7.50598 0Z" fill="white"/>
</g>
<defs>
<clipPath id="clip0_859_5921">
<rect width="37" height="37" fill="white" transform="translate(0.75)"/>
</clipPath>
</defs>
</svg>
