<svg width="37" height="37" viewBox="0 0 37 37" fill="none" xmlns="http://www.w3.org/2000/svg">
<g clip-path="url(#clip0_859_5913)">
<path d="M18.5018 12.4794C15.1867 12.4794 12.4812 15.1848 12.4812 18.5C12.4812 21.8152 15.1867 24.5206 18.5018 24.5206C21.817 24.5206 24.5225 21.8152 24.5225 18.5C24.5225 15.1848 21.817 12.4794 18.5018 12.4794ZM36.5592 18.5C36.5592 16.0068 36.5818 13.5363 36.4418 11.0476C36.3018 8.15698 35.6424 5.59155 33.5286 3.47778C31.4103 1.3595 28.8494 0.70459 25.9588 0.564576C23.4656 0.424561 20.995 0.447144 18.5064 0.447144C16.0132 0.447144 13.5426 0.424561 11.054 0.564576C8.16333 0.70459 5.5979 1.36401 3.48413 3.47778C1.36585 5.59607 0.710938 8.15698 0.570923 11.0476C0.430909 13.5408 0.453492 16.0114 0.453492 18.5C0.453492 20.9886 0.430909 23.4637 0.570923 25.9524C0.710938 28.843 1.37036 31.4084 3.48413 33.5222C5.60242 35.6405 8.16333 36.2954 11.054 36.4354C13.5471 36.5754 16.0177 36.5529 18.5064 36.5529C20.9995 36.5529 23.4701 36.5754 25.9588 36.4354C28.8494 36.2954 31.4148 35.636 33.5286 33.5222C35.6469 31.4039 36.3018 28.843 36.4418 25.9524C36.5863 23.4637 36.5592 20.9932 36.5592 18.5ZM18.5018 27.7635C13.3755 27.7635 9.23829 23.6263 9.23829 18.5C9.23829 13.3737 13.3755 9.23645 18.5018 9.23645C23.6282 9.23645 27.7654 13.3737 27.7654 18.5C27.7654 23.6263 23.6282 27.7635 18.5018 27.7635ZM28.1448 11.0205C26.9479 11.0205 25.9813 10.054 25.9813 8.85706C25.9813 7.66016 26.9479 6.6936 28.1448 6.6936C29.3417 6.6936 30.3082 7.66016 30.3082 8.85706C30.3086 9.14126 30.2529 9.42275 30.1443 9.6854C30.0357 9.94804 29.8763 10.1867 29.6754 10.3876C29.4744 10.5886 29.2358 10.748 28.9731 10.8566C28.7105 10.9651 28.429 11.0209 28.1448 11.0205Z" fill="white"/>
</g>
<defs>
<clipPath id="clip0_859_5913">
<rect width="37" height="37" fill="white"/>
</clipPath>
</defs>
</svg>
