<svg width="46" height="58" viewBox="0 0 46 58" fill="none" xmlns="http://www.w3.org/2000/svg">
<g clip-path="url(#clip0_859_5953)">
<path d="M22.806 0.221924C16.814 0.228993 11.0695 2.61242 6.83256 6.84938C2.5956 11.0863 0.212171 16.8309 0.205102 22.8228C0.197926 27.7195 1.7974 32.4832 4.75816 36.3834C4.75816 36.3834 5.37455 37.195 5.47522 37.3121L22.806 57.7515L40.145 37.3018C40.2354 37.1929 40.8539 36.3834 40.8539 36.3834L40.8559 36.3772C43.8152 32.4788 45.4139 27.7172 45.4069 22.8228C45.3998 16.8309 43.0164 11.0863 38.7795 6.84938C34.5425 2.61242 28.798 0.228993 22.806 0.221924ZM22.806 31.0413C21.1805 31.0413 19.5916 30.5593 18.24 29.6563C16.8885 28.7532 15.8351 27.4697 15.2131 25.9679C14.5911 24.4662 14.4283 22.8137 14.7454 21.2195C15.0625 19.6252 15.8453 18.1608 16.9946 17.0115C18.144 15.8621 19.6084 15.0793 21.2027 14.7622C22.7969 14.4451 24.4494 14.6079 25.9511 15.2299C27.4528 15.852 28.7364 16.9053 29.6395 18.2569C30.5425 19.6084 31.0245 21.1974 31.0245 22.8228C31.0218 25.0017 30.1551 27.0905 28.6144 28.6312C27.0737 30.1719 24.9849 31.0386 22.806 31.0413Z" fill="white"/>
</g>
<defs>
<clipPath id="clip0_859_5953">
<rect width="45.2019" height="57.5296" fill="white" transform="translate(0.205078 0.221924)"/>
</clipPath>
</defs>
</svg>
