<svg width="34" height="47" viewBox="0 0 34 47" fill="none" xmlns="http://www.w3.org/2000/svg">
<path d="M6.33902 1.43146L8.81042 0.641347C11.1279 -0.0982361 13.6039 1.09842 14.5962 3.4366L16.5715 8.0946C17.4305 10.1227 16.9527 12.5091 15.3909 13.9929L11.0384 18.1226C11.3071 20.594 12.1385 23.0264 13.5304 25.4197C14.8522 27.7352 16.6251 29.762 18.7443 31.38L23.9719 29.6344C25.9518 28.9752 28.1108 29.7355 29.3235 31.5201L32.1555 35.6774C33.5681 37.7537 33.3131 40.6156 31.5607 42.375L29.6841 44.2607C27.8145 46.1372 25.1433 46.8194 22.6742 46.0476C16.8402 44.2285 11.4817 38.8287 6.58938 29.848C1.69021 20.8536 -0.0393107 13.2189 1.40311 6.95307C2.00947 4.31629 3.88599 2.21468 6.33902 1.43146Z" fill="white"/>
</svg>
