<svg width="46" height="46" viewBox="0 0 46 46" fill="none" xmlns="http://www.w3.org/2000/svg">
<path d="M33.0659 27.7379C33.2478 26.2372 33.3843 24.7364 33.3843 23.1902C33.3843 21.6439 33.2478 20.1432 33.0659 18.6424H40.7516C41.1154 20.0977 41.3428 21.6212 41.3428 23.1902C41.3428 24.7591 41.1154 26.2826 40.7516 27.7379H33.0659ZM29.0412 40.3806C30.4055 37.8566 31.4515 35.128 32.1791 32.2857H38.887C36.684 36.0791 33.189 38.9526 29.0412 40.3806ZM28.4727 27.7379H17.831C17.6036 26.2372 17.4671 24.7364 17.4671 23.1902C17.4671 21.6439 17.6036 20.1204 17.831 18.6424H28.4727C28.6773 20.1204 28.8365 21.6439 28.8365 23.1902C28.8365 24.7364 28.6773 26.2372 28.4727 27.7379ZM23.1518 41.2902C21.2645 38.5615 19.741 35.5373 18.8087 32.2857H27.4949C26.5626 35.5373 25.0391 38.5615 23.1518 41.2902ZM14.0563 14.0947H7.41662C9.59694 10.291 13.0895 7.41285 17.2398 5.99967C15.8754 8.52367 14.8522 11.2523 14.0563 14.0947ZM7.41662 32.2857H14.0563C14.8522 35.128 15.8754 37.8566 17.2398 40.3806C13.0982 38.9519 9.61056 36.0778 7.41662 32.2857ZM5.55204 27.7379C5.18822 26.2826 4.96083 24.7591 4.96083 23.1902C4.96083 21.6212 5.18822 20.0977 5.55204 18.6424H13.2377C13.0558 20.1432 12.9194 21.6439 12.9194 23.1902C12.9194 24.7364 13.0558 26.2372 13.2377 27.7379H5.55204ZM23.1518 5.06738C25.0391 7.79603 26.5626 10.843 27.4949 14.0947H18.8087C19.741 10.843 21.2645 7.79603 23.1518 5.06738ZM38.887 14.0947H32.1791C31.4674 11.2784 30.4136 8.55982 29.0412 5.99967C33.2251 7.43221 36.7041 10.32 38.887 14.0947ZM23.1518 0.451416C10.5773 0.451416 0.413086 10.6839 0.413086 23.1902C0.413086 29.2208 2.80877 35.0045 7.07311 39.2689C9.1846 41.3804 11.6913 43.0553 14.4501 44.198C17.2089 45.3407 20.1657 45.9289 23.1518 45.9289C29.1825 45.9289 34.9662 43.5332 39.2305 39.2689C43.4949 35.0045 45.8906 29.2208 45.8906 23.1902C45.8906 20.2041 45.3024 17.2472 44.1597 14.4884C43.017 11.7296 41.342 9.22293 39.2305 7.11144C37.1191 4.99995 34.6124 3.32503 31.8536 2.1823C29.0948 1.03957 26.1379 0.451416 23.1518 0.451416Z" fill="white"/>
</svg>
