<svg width="43" height="29" viewBox="0 0 43 29" fill="none" xmlns="http://www.w3.org/2000/svg">
<g clip-path="url(#clip0_859_5917)">
<path d="M41.0717 5.0914C40.839 4.26111 40.3856 3.50942 39.7598 2.91622C39.1163 2.30477 38.3276 1.86739 37.4681 1.64536C34.2516 0.797556 21.365 0.797556 21.365 0.797556C15.9927 0.736433 10.6217 1.00527 5.28232 1.60254C4.42285 1.84098 3.63563 2.28813 2.99068 2.90423C2.35696 3.51396 1.89795 4.26585 1.65816 5.08968C1.08216 8.19273 0.802293 11.3435 0.822346 14.4995C0.801793 17.6526 1.08097 20.8024 1.65816 23.9093C1.89281 24.7297 2.35011 25.4781 2.98554 26.0827C3.62096 26.6873 4.41225 27.1241 5.28232 27.3553C8.54167 28.2014 21.365 28.2014 21.365 28.2014C26.7441 28.2626 32.1219 27.9938 37.4681 27.3964C38.3276 27.1744 39.1163 26.737 39.7598 26.1256C40.3854 25.5325 40.8382 24.7807 41.07 23.9504C41.6611 20.8485 41.9485 17.6965 41.9281 14.5389C41.9726 11.3679 41.6856 8.20099 41.0717 5.08968V5.0914ZM17.2681 20.3639V8.63677L27.9898 14.5012L17.2681 20.3639Z" fill="white"/>
</g>
<defs>
<clipPath id="clip0_859_5917">
<rect width="42.75" height="27.9519" fill="white" transform="translate(0 0.523926)"/>
</clipPath>
</defs>
</svg>
